<svg display="none" xmlns="http://www.w3.org/2000/svg">
    <symbol id="mouse" viewBox="0 0 210.414 210.414">
        <g>
            <path d="M105.207,0C66.532,0,35.069,31.45,35.069,70.104v70.21c0,38.653,31.463,70.1,70.138,70.1
                c38.675,0,70.138-31.446,70.138-70.1v-70.21C175.345,31.45,143.881,0,105.207,0z M167.552,140.314
                c0,34.357-27.968,62.307-62.345,62.307c-34.377,0-62.345-27.95-62.345-62.307v-70.21c0-34.357,27.968-62.311,62.345-62.311
                c34.377,0,62.345,27.953,62.345,62.311V140.314z"/>
            <path d="M105.207,23.379c-2.152,0-3.897,1.743-3.897,3.897v35.286c0,2.154,1.745,3.897,3.897,3.897
                c2.152,0,3.897-1.743,3.897-3.897V27.276C109.103,25.122,107.359,23.379,105.207,23.379z"/>
        </g>
    </symbol>

    <symbol id="down" viewBox="0 0 30.727 30.727">
       <g>
            <path d="M15.362,30.229L0.732,15.601c-0.977-0.977-0.977-2.56,0-3.535c0.979-0.976,2.561-0.977,3.535,0l11.095,11.094
            l11.096-11.094c0.978-0.977,2.56-0.977,3.534,0c0.978,0.979,0.979,2.562,0,3.535L15.362,30.229z M29.992,4.765
            c0.979-0.978,0.979-2.561,0-3.535c-0.977-0.977-2.559-0.977-3.534,0L15.363,12.325L4.268,1.229c-0.979-0.977-2.56-0.977-3.535,0
            c-0.976,0.978-0.977,2.56,0,3.535l14.632,14.631L29.992,4.765z"/>
        </g>
    </symbol>
    <symbol id="menu" viewBox="0 0 124 124">
        <g>
            <path d="M112,6H12C5.4,6,0,11.4,0,18s5.4,12,12,12h100c6.6,0,12-5.4,12-12S118.6,6,112,6z"/>
            <path d="M112,50H12C5.4,50,0,55.4,0,62c0,6.6,5.4,12,12,12h100c6.6,0,12-5.4,12-12C124,55.4,118.6,50,112,50z"/>
            <path d="M112,94H12c-6.6,0-12,5.4-12,12s5.4,12,12,12h100c6.6,0,12-5.4,12-12S118.6,94,112,94z"/>
        </g>
    </symbol>
</svg>